G75*
%MOIN*%
%OFA0B0*%
%FSLAX24Y24*%
%IPPOS*%
%LPD*%
%AMOC8*
5,1,8,0,0,1.08239X$1,22.5*
%
%ADD10C,0.0000*%
%ADD11C,0.0051*%
%ADD12C,0.0060*%
%ADD13C,0.0515*%
%ADD14OC8,0.0594*%
%ADD15C,0.0160*%
D10*
X006049Y004059D02*
X006049Y021915D01*
X015431Y021915D01*
X015431Y004059D01*
X006049Y004059D01*
X006570Y012793D02*
X006572Y012832D01*
X006578Y012871D01*
X006588Y012909D01*
X006601Y012946D01*
X006618Y012981D01*
X006638Y013015D01*
X006662Y013046D01*
X006689Y013075D01*
X006718Y013101D01*
X006750Y013124D01*
X006784Y013144D01*
X006820Y013160D01*
X006857Y013172D01*
X006896Y013181D01*
X006935Y013186D01*
X006974Y013187D01*
X007013Y013184D01*
X007052Y013177D01*
X007089Y013166D01*
X007126Y013152D01*
X007161Y013134D01*
X007194Y013113D01*
X007225Y013088D01*
X007253Y013061D01*
X007278Y013031D01*
X007300Y012998D01*
X007319Y012964D01*
X007334Y012928D01*
X007346Y012890D01*
X007354Y012852D01*
X007358Y012813D01*
X007358Y012773D01*
X007354Y012734D01*
X007346Y012696D01*
X007334Y012658D01*
X007319Y012622D01*
X007300Y012588D01*
X007278Y012555D01*
X007253Y012525D01*
X007225Y012498D01*
X007194Y012473D01*
X007161Y012452D01*
X007126Y012434D01*
X007089Y012420D01*
X007052Y012409D01*
X007013Y012402D01*
X006974Y012399D01*
X006935Y012400D01*
X006896Y012405D01*
X006857Y012414D01*
X006820Y012426D01*
X006784Y012442D01*
X006750Y012462D01*
X006718Y012485D01*
X006689Y012511D01*
X006662Y012540D01*
X006638Y012571D01*
X006618Y012605D01*
X006601Y012640D01*
X006588Y012677D01*
X006578Y012715D01*
X006572Y012754D01*
X006570Y012793D01*
X014090Y020795D02*
X014092Y020834D01*
X014098Y020873D01*
X014108Y020911D01*
X014121Y020948D01*
X014138Y020983D01*
X014158Y021017D01*
X014182Y021048D01*
X014209Y021077D01*
X014238Y021103D01*
X014270Y021126D01*
X014304Y021146D01*
X014340Y021162D01*
X014377Y021174D01*
X014416Y021183D01*
X014455Y021188D01*
X014494Y021189D01*
X014533Y021186D01*
X014572Y021179D01*
X014609Y021168D01*
X014646Y021154D01*
X014681Y021136D01*
X014714Y021115D01*
X014745Y021090D01*
X014773Y021063D01*
X014798Y021033D01*
X014820Y021000D01*
X014839Y020966D01*
X014854Y020930D01*
X014866Y020892D01*
X014874Y020854D01*
X014878Y020815D01*
X014878Y020775D01*
X014874Y020736D01*
X014866Y020698D01*
X014854Y020660D01*
X014839Y020624D01*
X014820Y020590D01*
X014798Y020557D01*
X014773Y020527D01*
X014745Y020500D01*
X014714Y020475D01*
X014681Y020454D01*
X014646Y020436D01*
X014609Y020422D01*
X014572Y020411D01*
X014533Y020404D01*
X014494Y020401D01*
X014455Y020402D01*
X014416Y020407D01*
X014377Y020416D01*
X014340Y020428D01*
X014304Y020444D01*
X014270Y020464D01*
X014238Y020487D01*
X014209Y020513D01*
X014182Y020542D01*
X014158Y020573D01*
X014138Y020607D01*
X014121Y020642D01*
X014108Y020679D01*
X014098Y020717D01*
X014092Y020756D01*
X014090Y020795D01*
X014155Y004801D02*
X014157Y004840D01*
X014163Y004879D01*
X014173Y004917D01*
X014186Y004954D01*
X014203Y004989D01*
X014223Y005023D01*
X014247Y005054D01*
X014274Y005083D01*
X014303Y005109D01*
X014335Y005132D01*
X014369Y005152D01*
X014405Y005168D01*
X014442Y005180D01*
X014481Y005189D01*
X014520Y005194D01*
X014559Y005195D01*
X014598Y005192D01*
X014637Y005185D01*
X014674Y005174D01*
X014711Y005160D01*
X014746Y005142D01*
X014779Y005121D01*
X014810Y005096D01*
X014838Y005069D01*
X014863Y005039D01*
X014885Y005006D01*
X014904Y004972D01*
X014919Y004936D01*
X014931Y004898D01*
X014939Y004860D01*
X014943Y004821D01*
X014943Y004781D01*
X014939Y004742D01*
X014931Y004704D01*
X014919Y004666D01*
X014904Y004630D01*
X014885Y004596D01*
X014863Y004563D01*
X014838Y004533D01*
X014810Y004506D01*
X014779Y004481D01*
X014746Y004460D01*
X014711Y004442D01*
X014674Y004428D01*
X014637Y004417D01*
X014598Y004410D01*
X014559Y004407D01*
X014520Y004408D01*
X014481Y004413D01*
X014442Y004422D01*
X014405Y004434D01*
X014369Y004450D01*
X014335Y004470D01*
X014303Y004493D01*
X014274Y004519D01*
X014247Y004548D01*
X014223Y004579D01*
X014203Y004613D01*
X014186Y004648D01*
X014173Y004685D01*
X014163Y004723D01*
X014157Y004762D01*
X014155Y004801D01*
D11*
X006049Y004059D02*
X000492Y004059D01*
X001260Y004084D02*
X001362Y005082D01*
X001385Y005082D02*
X001260Y004084D01*
X001157Y005082D01*
X001134Y005082D02*
X001385Y005082D01*
X001311Y005082D02*
X001260Y004084D01*
X001208Y005082D01*
X001134Y005082D02*
X001260Y004084D01*
X001260Y021889D01*
X001362Y020891D01*
X001385Y020891D02*
X001260Y021889D01*
X001157Y020891D01*
X001134Y020891D02*
X001385Y020891D01*
X001311Y020891D02*
X001260Y021889D01*
X001208Y020891D01*
X001134Y020891D02*
X001260Y021889D01*
X000492Y021915D02*
X006049Y021915D01*
X006049Y023527D01*
X006074Y022759D02*
X007073Y022657D01*
X007073Y022634D02*
X006074Y022759D01*
X007073Y022862D01*
X007073Y022885D02*
X007073Y022634D01*
X007073Y022708D02*
X006074Y022759D01*
X007073Y022811D01*
X007073Y022885D02*
X006074Y022759D01*
X015405Y022759D01*
X014407Y022657D01*
X014407Y022634D02*
X015405Y022759D01*
X014407Y022862D01*
X014407Y022885D02*
X014407Y022634D01*
X014407Y022708D02*
X015405Y022759D01*
X014407Y022811D01*
X014407Y022885D02*
X015405Y022759D01*
X015431Y023527D02*
X015431Y021915D01*
D12*
X011966Y023016D02*
X011539Y023443D01*
X011539Y023549D01*
X011646Y023656D01*
X011859Y023656D01*
X011966Y023549D01*
X011966Y023016D02*
X011539Y023016D01*
X011322Y023122D02*
X011215Y023016D01*
X011001Y023016D01*
X010895Y023122D01*
X010895Y023229D01*
X011001Y023336D01*
X011108Y023336D01*
X011001Y023336D02*
X010895Y023443D01*
X010895Y023549D01*
X011001Y023656D01*
X011215Y023656D01*
X011322Y023549D01*
X010677Y023122D02*
X010677Y023016D01*
X010570Y023016D01*
X010570Y023122D01*
X010677Y023122D01*
X010355Y023122D02*
X010248Y023016D01*
X010034Y023016D01*
X009928Y023122D01*
X009928Y023229D01*
X010034Y023336D01*
X010248Y023336D01*
X010355Y023443D01*
X010355Y023549D01*
X010248Y023656D01*
X010034Y023656D01*
X009928Y023549D01*
X009928Y023443D01*
X010034Y023336D01*
X010248Y023336D02*
X010355Y023229D01*
X010355Y023122D01*
X009710Y023122D02*
X009603Y023016D01*
X009390Y023016D01*
X009283Y023122D01*
X009283Y023229D01*
X009390Y023336D01*
X009497Y023336D01*
X009390Y023336D02*
X009283Y023443D01*
X009283Y023549D01*
X009390Y023656D01*
X009603Y023656D01*
X009710Y023549D01*
X001004Y014056D02*
X000897Y013842D01*
X000684Y013629D01*
X000684Y013949D01*
X000577Y014056D01*
X000470Y014056D01*
X000363Y013949D01*
X000363Y013735D01*
X000470Y013629D01*
X000684Y013629D01*
X000790Y013411D02*
X000684Y013304D01*
X000577Y013411D01*
X000470Y013411D01*
X000363Y013304D01*
X000363Y013091D01*
X000470Y012984D01*
X000470Y012768D02*
X000363Y012768D01*
X000363Y012662D01*
X000470Y012662D01*
X000470Y012768D01*
X000470Y012444D02*
X000363Y012337D01*
X000363Y012124D01*
X000470Y012017D01*
X000470Y012444D02*
X000684Y012444D01*
X000790Y012337D01*
X000790Y012231D01*
X000684Y012017D01*
X001004Y012017D01*
X001004Y012444D01*
X000684Y011800D02*
X000684Y011373D01*
X001004Y011693D01*
X000363Y011693D01*
X000897Y012984D02*
X001004Y013091D01*
X001004Y013304D01*
X000897Y013411D01*
X000790Y013411D01*
X000684Y013304D02*
X000684Y013198D01*
D13*
X008803Y012878D03*
X008803Y013878D03*
X008803Y014878D03*
X008803Y015878D03*
X008803Y016878D03*
X008803Y017878D03*
X012803Y017878D03*
X012803Y016878D03*
X012803Y015878D03*
X012803Y014878D03*
X012803Y013878D03*
X012803Y012878D03*
X012803Y011878D03*
X012803Y010878D03*
X012803Y009878D03*
X012803Y008878D03*
X012803Y007878D03*
X008803Y007878D03*
X008803Y008878D03*
X008803Y009878D03*
X008803Y010878D03*
X008803Y011878D03*
D14*
X007478Y007679D03*
X007478Y006679D03*
X007478Y005679D03*
X014470Y009846D03*
X014470Y010846D03*
X014470Y011846D03*
X014470Y012846D03*
X014470Y013846D03*
X014470Y014846D03*
X014470Y015846D03*
D15*
X014951Y015454D02*
X014843Y015346D01*
X014951Y015238D01*
X014951Y015454D01*
X014951Y015399D02*
X014896Y015399D01*
X014948Y015241D02*
X014951Y015241D01*
X014951Y014454D02*
X014951Y014238D01*
X014843Y014346D01*
X014951Y014454D01*
X014951Y014448D02*
X014945Y014448D01*
X014951Y014290D02*
X014899Y014290D01*
X014951Y013454D02*
X014951Y013238D01*
X014843Y013346D01*
X014951Y013454D01*
X014951Y013339D02*
X014850Y013339D01*
X014098Y013346D02*
X013853Y013102D01*
X013853Y012591D01*
X014098Y012346D01*
X013853Y012102D01*
X013853Y011591D01*
X014098Y011346D01*
X013853Y011102D01*
X013853Y010591D01*
X014098Y010346D01*
X013853Y010102D01*
X013853Y009591D01*
X014070Y009374D01*
X014070Y006411D01*
X012708Y005049D01*
X009102Y005049D01*
X008746Y005405D01*
X008746Y006890D01*
X008685Y007037D01*
X008095Y007628D01*
X008095Y007934D01*
X007734Y008296D01*
X007223Y008296D01*
X006861Y007934D01*
X006861Y007423D01*
X007106Y007179D01*
X006861Y006934D01*
X006861Y006423D01*
X007106Y006179D01*
X006861Y005934D01*
X006861Y005423D01*
X007223Y005062D01*
X007734Y005062D01*
X007946Y005274D01*
X007946Y005160D01*
X008007Y005013D01*
X008120Y004901D01*
X008482Y004539D01*
X006529Y004539D01*
X006529Y012028D01*
X006790Y011919D01*
X007138Y011919D01*
X007459Y012052D01*
X007705Y012298D01*
X007838Y012619D01*
X007838Y012967D01*
X007705Y013288D01*
X007459Y013534D01*
X007138Y013667D01*
X006790Y013667D01*
X006529Y013558D01*
X006529Y021435D01*
X013888Y021435D01*
X013743Y021290D01*
X013610Y020969D01*
X013610Y020621D01*
X013743Y020300D01*
X013989Y020054D01*
X014310Y019921D01*
X014658Y019921D01*
X014951Y020043D01*
X014951Y016238D01*
X014726Y016463D01*
X014215Y016463D01*
X013853Y016102D01*
X013853Y015591D01*
X014098Y015346D01*
X013853Y015102D01*
X013853Y014591D01*
X014098Y014346D01*
X013853Y014102D01*
X013853Y013591D01*
X014098Y013346D01*
X014090Y013339D02*
X013158Y013339D01*
X013130Y013367D02*
X013105Y013378D01*
X013130Y013388D01*
X013292Y013550D01*
X013380Y013763D01*
X013380Y013992D01*
X013292Y014205D01*
X013130Y014367D01*
X013105Y014378D01*
X013130Y014388D01*
X013292Y014550D01*
X013380Y014763D01*
X013380Y014992D01*
X013292Y015205D01*
X013130Y015367D01*
X013105Y015378D01*
X013130Y015388D01*
X013292Y015550D01*
X013380Y015763D01*
X013380Y015992D01*
X013292Y016205D01*
X013130Y016367D01*
X013105Y016378D01*
X013130Y016388D01*
X013292Y016550D01*
X013380Y016763D01*
X013380Y016992D01*
X013292Y017205D01*
X013130Y017367D01*
X013105Y017378D01*
X013130Y017388D01*
X013292Y017550D01*
X013380Y017763D01*
X013380Y017992D01*
X013292Y018205D01*
X013130Y018367D01*
X012918Y018455D01*
X012688Y018455D01*
X012503Y018378D01*
X012503Y020460D01*
X012386Y020578D01*
X009220Y020578D01*
X009103Y020460D01*
X009103Y018378D01*
X008918Y018455D01*
X008688Y018455D01*
X008476Y018367D01*
X008313Y018205D01*
X008225Y017992D01*
X008225Y017763D01*
X008313Y017550D01*
X008476Y017388D01*
X008501Y017378D01*
X008476Y017367D01*
X008313Y017205D01*
X008225Y016992D01*
X008225Y016763D01*
X008313Y016550D01*
X008476Y016388D01*
X008501Y016378D01*
X008476Y016367D01*
X008313Y016205D01*
X008225Y015992D01*
X008225Y015763D01*
X008313Y015550D01*
X008476Y015388D01*
X008501Y015378D01*
X008476Y015367D01*
X008313Y015205D01*
X008225Y014992D01*
X008225Y014763D01*
X008313Y014550D01*
X008476Y014388D01*
X008501Y014378D01*
X008476Y014367D01*
X008313Y014205D01*
X008225Y013992D01*
X008225Y013763D01*
X008313Y013550D01*
X008476Y013388D01*
X008501Y013378D01*
X008476Y013367D01*
X008313Y013205D01*
X008225Y012992D01*
X008225Y012763D01*
X008313Y012550D01*
X008476Y012388D01*
X008501Y012378D01*
X008476Y012367D01*
X008313Y012205D01*
X008225Y011992D01*
X008225Y011763D01*
X008313Y011550D01*
X008476Y011388D01*
X008501Y011378D01*
X008476Y011367D01*
X008313Y011205D01*
X008225Y010992D01*
X008225Y010763D01*
X008313Y010550D01*
X008476Y010388D01*
X008501Y010378D01*
X008476Y010367D01*
X008313Y010205D01*
X008225Y009992D01*
X008225Y009763D01*
X008313Y009550D01*
X008476Y009388D01*
X008501Y009378D01*
X008476Y009367D01*
X008313Y009205D01*
X008225Y008992D01*
X008225Y008763D01*
X008313Y008550D01*
X008476Y008388D01*
X008501Y008378D01*
X008476Y008367D01*
X008313Y008205D01*
X008225Y007992D01*
X008225Y007763D01*
X008313Y007550D01*
X008476Y007388D01*
X008688Y007300D01*
X008918Y007300D01*
X009103Y007377D01*
X009103Y005295D01*
X009220Y005178D01*
X009386Y005178D01*
X012386Y005178D01*
X012503Y005295D01*
X012503Y007377D01*
X012688Y007300D01*
X012918Y007300D01*
X013130Y007388D01*
X013292Y007550D01*
X013380Y007763D01*
X013380Y007992D01*
X013292Y008205D01*
X013130Y008367D01*
X013105Y008378D01*
X013130Y008388D01*
X013292Y008550D01*
X013380Y008763D01*
X013380Y008992D01*
X013292Y009205D01*
X013130Y009367D01*
X013105Y009378D01*
X013130Y009388D01*
X013292Y009550D01*
X013380Y009763D01*
X013380Y009992D01*
X013292Y010205D01*
X013130Y010367D01*
X013105Y010378D01*
X013130Y010388D01*
X013292Y010550D01*
X013380Y010763D01*
X013380Y010992D01*
X013292Y011205D01*
X013130Y011367D01*
X013105Y011378D01*
X013130Y011388D01*
X013292Y011550D01*
X013380Y011763D01*
X013380Y011992D01*
X013292Y012205D01*
X013130Y012367D01*
X013105Y012378D01*
X013130Y012388D01*
X013292Y012550D01*
X013380Y012763D01*
X013380Y012992D01*
X013292Y013205D01*
X013130Y013367D01*
X013239Y013497D02*
X013947Y013497D01*
X013853Y013656D02*
X013336Y013656D01*
X013380Y013814D02*
X013853Y013814D01*
X013853Y013973D02*
X013380Y013973D01*
X013323Y014131D02*
X013883Y014131D01*
X014041Y014290D02*
X013207Y014290D01*
X013190Y014448D02*
X013996Y014448D01*
X013853Y014607D02*
X013316Y014607D01*
X013380Y014765D02*
X013853Y014765D01*
X013853Y014924D02*
X013380Y014924D01*
X013343Y015082D02*
X013853Y015082D01*
X013992Y015241D02*
X013256Y015241D01*
X013141Y015399D02*
X014045Y015399D01*
X013886Y015558D02*
X013295Y015558D01*
X013361Y015716D02*
X013853Y015716D01*
X013853Y015875D02*
X013380Y015875D01*
X013363Y016033D02*
X013853Y016033D01*
X013943Y016192D02*
X013298Y016192D01*
X013147Y016350D02*
X014102Y016350D01*
X014838Y016350D02*
X014951Y016350D01*
X014951Y016509D02*
X013251Y016509D01*
X013341Y016667D02*
X014951Y016667D01*
X014951Y016826D02*
X013380Y016826D01*
X013380Y016984D02*
X014951Y016984D01*
X014951Y017143D02*
X013318Y017143D01*
X013196Y017301D02*
X014951Y017301D01*
X014951Y017460D02*
X013202Y017460D01*
X013320Y017618D02*
X014951Y017618D01*
X014951Y017777D02*
X013380Y017777D01*
X013380Y017935D02*
X014951Y017935D01*
X014951Y018094D02*
X013338Y018094D01*
X013245Y018252D02*
X014951Y018252D01*
X014951Y018411D02*
X013025Y018411D01*
X012581Y018411D02*
X012503Y018411D01*
X012503Y018569D02*
X014951Y018569D01*
X014951Y018728D02*
X012503Y018728D01*
X012503Y018886D02*
X014951Y018886D01*
X014951Y019045D02*
X012503Y019045D01*
X012503Y019203D02*
X014951Y019203D01*
X014951Y019362D02*
X012503Y019362D01*
X012503Y019520D02*
X014951Y019520D01*
X014951Y019679D02*
X012503Y019679D01*
X012503Y019837D02*
X014951Y019837D01*
X014951Y019996D02*
X014837Y019996D01*
X014131Y019996D02*
X012503Y019996D01*
X012503Y020154D02*
X013889Y020154D01*
X013738Y020313D02*
X012503Y020313D01*
X012492Y020471D02*
X013672Y020471D01*
X013610Y020630D02*
X006529Y020630D01*
X006529Y020788D02*
X013610Y020788D01*
X013610Y020947D02*
X006529Y020947D01*
X006529Y021105D02*
X013667Y021105D01*
X013732Y021264D02*
X006529Y021264D01*
X006529Y021422D02*
X013876Y021422D01*
X009114Y020471D02*
X006529Y020471D01*
X006529Y020313D02*
X009103Y020313D01*
X009103Y020154D02*
X006529Y020154D01*
X006529Y019996D02*
X009103Y019996D01*
X009103Y019837D02*
X006529Y019837D01*
X006529Y019679D02*
X009103Y019679D01*
X009103Y019520D02*
X006529Y019520D01*
X006529Y019362D02*
X009103Y019362D01*
X009103Y019203D02*
X006529Y019203D01*
X006529Y019045D02*
X009103Y019045D01*
X009103Y018886D02*
X006529Y018886D01*
X006529Y018728D02*
X009103Y018728D01*
X009103Y018569D02*
X006529Y018569D01*
X006529Y018411D02*
X008581Y018411D01*
X008361Y018252D02*
X006529Y018252D01*
X006529Y018094D02*
X008267Y018094D01*
X008225Y017935D02*
X006529Y017935D01*
X006529Y017777D02*
X008225Y017777D01*
X008285Y017618D02*
X006529Y017618D01*
X006529Y017460D02*
X008404Y017460D01*
X008410Y017301D02*
X006529Y017301D01*
X006529Y017143D02*
X008288Y017143D01*
X008225Y016984D02*
X006529Y016984D01*
X006529Y016826D02*
X008225Y016826D01*
X008265Y016667D02*
X006529Y016667D01*
X006529Y016509D02*
X008355Y016509D01*
X008459Y016350D02*
X006529Y016350D01*
X006529Y016192D02*
X008308Y016192D01*
X008242Y016033D02*
X006529Y016033D01*
X006529Y015875D02*
X008225Y015875D01*
X008245Y015716D02*
X006529Y015716D01*
X006529Y015558D02*
X008310Y015558D01*
X008465Y015399D02*
X006529Y015399D01*
X006529Y015241D02*
X008349Y015241D01*
X008262Y015082D02*
X006529Y015082D01*
X006529Y014924D02*
X008225Y014924D01*
X008225Y014765D02*
X006529Y014765D01*
X006529Y014607D02*
X008290Y014607D01*
X008416Y014448D02*
X006529Y014448D01*
X006529Y014290D02*
X008398Y014290D01*
X008283Y014131D02*
X006529Y014131D01*
X006529Y013973D02*
X008225Y013973D01*
X008225Y013814D02*
X006529Y013814D01*
X006529Y013656D02*
X006764Y013656D01*
X007165Y013656D02*
X008270Y013656D01*
X008367Y013497D02*
X007496Y013497D01*
X007654Y013339D02*
X008447Y013339D01*
X008303Y013180D02*
X007750Y013180D01*
X007815Y013022D02*
X008237Y013022D01*
X008225Y012863D02*
X007838Y012863D01*
X007838Y012705D02*
X008249Y012705D01*
X008318Y012546D02*
X007808Y012546D01*
X007742Y012388D02*
X008477Y012388D01*
X008338Y012229D02*
X007636Y012229D01*
X007477Y012071D02*
X008258Y012071D01*
X008225Y011912D02*
X006529Y011912D01*
X006529Y011754D02*
X008229Y011754D01*
X008295Y011595D02*
X006529Y011595D01*
X006529Y011437D02*
X008427Y011437D01*
X008387Y011278D02*
X006529Y011278D01*
X006529Y011120D02*
X008278Y011120D01*
X008225Y010961D02*
X006529Y010961D01*
X006529Y010803D02*
X008225Y010803D01*
X008274Y010644D02*
X006529Y010644D01*
X006529Y010486D02*
X008378Y010486D01*
X008436Y010327D02*
X006529Y010327D01*
X006529Y010169D02*
X008298Y010169D01*
X008233Y010010D02*
X006529Y010010D01*
X006529Y009852D02*
X008225Y009852D01*
X008254Y009693D02*
X006529Y009693D01*
X006529Y009535D02*
X008329Y009535D01*
X008497Y009376D02*
X006529Y009376D01*
X006529Y009218D02*
X008326Y009218D01*
X008253Y009059D02*
X006529Y009059D01*
X006529Y008901D02*
X008225Y008901D01*
X008234Y008742D02*
X006529Y008742D01*
X006529Y008584D02*
X008300Y008584D01*
X008439Y008425D02*
X006529Y008425D01*
X006529Y008267D02*
X007193Y008267D01*
X007035Y008108D02*
X006529Y008108D01*
X006529Y007950D02*
X006876Y007950D01*
X006861Y007791D02*
X006529Y007791D01*
X006529Y007633D02*
X006861Y007633D01*
X006861Y007474D02*
X006529Y007474D01*
X006529Y007316D02*
X006969Y007316D01*
X007084Y007157D02*
X006529Y007157D01*
X006529Y006999D02*
X006925Y006999D01*
X006861Y006840D02*
X006529Y006840D01*
X006529Y006682D02*
X006861Y006682D01*
X006861Y006523D02*
X006529Y006523D01*
X006529Y006365D02*
X006920Y006365D01*
X007078Y006206D02*
X006529Y006206D01*
X006529Y006048D02*
X006974Y006048D01*
X006861Y005889D02*
X006529Y005889D01*
X006529Y005731D02*
X006861Y005731D01*
X006861Y005572D02*
X006529Y005572D01*
X006529Y005414D02*
X006871Y005414D01*
X007029Y005255D02*
X006529Y005255D01*
X006529Y005097D02*
X007188Y005097D01*
X007768Y005097D02*
X007972Y005097D01*
X007946Y005255D02*
X007927Y005255D01*
X008082Y004938D02*
X006529Y004938D01*
X006529Y004780D02*
X008241Y004780D01*
X008399Y004621D02*
X006529Y004621D01*
X007946Y006083D02*
X007850Y006179D01*
X007946Y006274D01*
X007946Y006083D01*
X007946Y006206D02*
X007878Y006206D01*
X008346Y006811D02*
X007478Y007679D01*
X007921Y008108D02*
X008273Y008108D01*
X008225Y007950D02*
X008080Y007950D01*
X008095Y007791D02*
X008225Y007791D01*
X008279Y007633D02*
X008095Y007633D01*
X008248Y007474D02*
X008390Y007474D01*
X008407Y007316D02*
X008651Y007316D01*
X008565Y007157D02*
X009103Y007157D01*
X009103Y006999D02*
X008701Y006999D01*
X008746Y006840D02*
X009103Y006840D01*
X009103Y006682D02*
X008746Y006682D01*
X008746Y006523D02*
X009103Y006523D01*
X009103Y006365D02*
X008746Y006365D01*
X008746Y006206D02*
X009103Y006206D01*
X009103Y006048D02*
X008746Y006048D01*
X008746Y005889D02*
X009103Y005889D01*
X009103Y005731D02*
X008746Y005731D01*
X008746Y005572D02*
X009103Y005572D01*
X009103Y005414D02*
X008746Y005414D01*
X008897Y005255D02*
X009142Y005255D01*
X009055Y005097D02*
X012755Y005097D01*
X012914Y005255D02*
X012463Y005255D01*
X012503Y005414D02*
X013072Y005414D01*
X013231Y005572D02*
X012503Y005572D01*
X012503Y005731D02*
X013389Y005731D01*
X013548Y005889D02*
X012503Y005889D01*
X012503Y006048D02*
X013706Y006048D01*
X013865Y006206D02*
X012503Y006206D01*
X012503Y006365D02*
X014023Y006365D01*
X014070Y006523D02*
X012503Y006523D01*
X012503Y006682D02*
X014070Y006682D01*
X014070Y006840D02*
X012503Y006840D01*
X012503Y006999D02*
X014070Y006999D01*
X014070Y007157D02*
X012503Y007157D01*
X012503Y007316D02*
X012651Y007316D01*
X012955Y007316D02*
X014070Y007316D01*
X014070Y007474D02*
X013216Y007474D01*
X013326Y007633D02*
X014070Y007633D01*
X014070Y007791D02*
X013380Y007791D01*
X013380Y007950D02*
X014070Y007950D01*
X014070Y008108D02*
X013332Y008108D01*
X013230Y008267D02*
X014070Y008267D01*
X014070Y008425D02*
X013167Y008425D01*
X013306Y008584D02*
X014070Y008584D01*
X014070Y008742D02*
X013372Y008742D01*
X013380Y008901D02*
X014070Y008901D01*
X014070Y009059D02*
X013353Y009059D01*
X013279Y009218D02*
X014070Y009218D01*
X014068Y009376D02*
X013108Y009376D01*
X013277Y009535D02*
X013909Y009535D01*
X013853Y009693D02*
X013351Y009693D01*
X013380Y009852D02*
X013853Y009852D01*
X013853Y010010D02*
X013373Y010010D01*
X013307Y010169D02*
X013920Y010169D01*
X014079Y010327D02*
X013170Y010327D01*
X013228Y010486D02*
X013958Y010486D01*
X013853Y010644D02*
X013331Y010644D01*
X013380Y010803D02*
X013853Y010803D01*
X013853Y010961D02*
X013380Y010961D01*
X013328Y011120D02*
X013871Y011120D01*
X014030Y011278D02*
X013219Y011278D01*
X013179Y011437D02*
X014007Y011437D01*
X013853Y011595D02*
X013311Y011595D01*
X013377Y011754D02*
X013853Y011754D01*
X013853Y011912D02*
X013380Y011912D01*
X013348Y012071D02*
X013853Y012071D01*
X013981Y012229D02*
X013268Y012229D01*
X013129Y012388D02*
X014056Y012388D01*
X013898Y012546D02*
X013288Y012546D01*
X013356Y012705D02*
X013853Y012705D01*
X013853Y012863D02*
X013380Y012863D01*
X013368Y013022D02*
X013853Y013022D01*
X013932Y013180D02*
X013303Y013180D01*
X014843Y012346D02*
X014951Y012454D01*
X014951Y012238D01*
X014843Y012346D01*
X014884Y012388D02*
X014951Y012388D01*
X014951Y011454D02*
X014843Y011346D01*
X014951Y011238D01*
X014951Y011454D01*
X014951Y011437D02*
X014933Y011437D01*
X014910Y011278D02*
X014951Y011278D01*
X014951Y010454D02*
X014843Y010346D01*
X014951Y010238D01*
X014951Y010454D01*
X014951Y010327D02*
X014861Y010327D01*
X014470Y009846D02*
X014470Y006246D01*
X012874Y004649D01*
X008937Y004649D01*
X008346Y005240D01*
X008346Y006811D01*
X008955Y007316D02*
X009103Y007316D01*
X008375Y008267D02*
X007763Y008267D01*
X013329Y004539D02*
X013675Y004885D01*
X013675Y004627D01*
X013712Y004539D01*
X013329Y004539D01*
X013411Y004621D02*
X013678Y004621D01*
X013675Y004780D02*
X013570Y004780D01*
X014465Y005674D02*
X014809Y006019D01*
X014870Y006166D01*
X014870Y009374D01*
X014951Y009454D01*
X014951Y005580D01*
X014723Y005674D01*
X014465Y005674D01*
X014521Y005731D02*
X014951Y005731D01*
X014951Y005889D02*
X014679Y005889D01*
X014821Y006048D02*
X014951Y006048D01*
X014951Y006206D02*
X014870Y006206D01*
X014870Y006365D02*
X014951Y006365D01*
X014951Y006523D02*
X014870Y006523D01*
X014870Y006682D02*
X014951Y006682D01*
X014951Y006840D02*
X014870Y006840D01*
X014870Y006999D02*
X014951Y006999D01*
X014951Y007157D02*
X014870Y007157D01*
X014870Y007316D02*
X014951Y007316D01*
X014951Y007474D02*
X014870Y007474D01*
X014870Y007633D02*
X014951Y007633D01*
X014951Y007791D02*
X014870Y007791D01*
X014870Y007950D02*
X014951Y007950D01*
X014951Y008108D02*
X014870Y008108D01*
X014870Y008267D02*
X014951Y008267D01*
X014951Y008425D02*
X014870Y008425D01*
X014870Y008584D02*
X014951Y008584D01*
X014951Y008742D02*
X014870Y008742D01*
X014870Y008901D02*
X014951Y008901D01*
X014951Y009059D02*
X014870Y009059D01*
X014870Y009218D02*
X014951Y009218D01*
X014951Y009376D02*
X014873Y009376D01*
X009103Y018411D02*
X009025Y018411D01*
M02*
